<?xml version="1.0" standalone="no"?>
<!DOCTYPE svg PUBLIC "-//W3C//DTD SVG 20010904//EN"
 "http://www.w3.org/TR/2001/REC-SVG-20010904/DTD/svg10.dtd">
<svg version="1.0" xmlns="http://www.w3.org/2000/svg"
 width="3000.000000pt" height="600.000000pt" viewBox="0 0 1331.000000 380.000000"
 preserveAspectRatio="xMidYMid meet">

<g transform="translate(0.000000,380.000000) scale(0.100000,-0.100000)"
fill="#ffffff" stroke="none" >
<path d="M4792 2723 l3 -1048 110 -3 c61 -2 152 0 203 3 l92 7 0 1044 0 1044
-205 0 -205 0 2 -1047z"/>
<path d="M5592 2723 l3 -1048 180 -3 c99 -1 190 0 203 3 l22 5 0 1045 0 1045
-205 0 -205 0 2 -1047z"/>
<path d="M6392 2723 l3 -1048 176 -3 c97 -1 186 1 197 5 l22 8 0 1030 c0 567
0 1036 0 1043 0 9 -47 12 -200 12 l-200 0 2 -1047z"/>
<path d="M7260 3570 l0 -200 795 0 795 0 0 200 0 200 -795 0 -795 0 0 -200z"/>
<path d="M7267 2923 c-4 -3 -7 -93 -7 -198 l0 -192 31 -7 c41 -8 1507 -8 1537
0 l22 6 -2 197 -3 196 -786 3 c-432 1 -789 -1 -792 -5z"/>
<path d="M7262 1878 l3 -203 770 -3 c424 -1 780 0 793 3 22 5 22 6 22 205 l0
200 -795 0 -795 0 2 -202z"/>
<path d="M5558 839 c-303 -39 -479 -311 -360 -560 132 -275 567 -337 801 -114
228 218 115 581 -205 659 -83 20 -158 25 -236 15z m194 -120 c112 -24 212
-111 238 -209 17 -63 6 -153 -25 -206 -34 -57 -100 -110 -172 -136 -86 -32
-226 -32 -312 1 -229 87 -272 362 -78 495 88 60 223 81 349 55z"/>
<path d="M8035 840 c-94 -8 -163 -33 -214 -76 -124 -107 -97 -261 58 -331 32
-14 119 -35 222 -52 101 -17 181 -36 201 -48 69 -40 50 -119 -41 -165 -49 -25
-65 -28 -158 -28 -122 0 -173 17 -266 87 -65 49 -70 48 -109 -15 l-22 -35 39
-34 c136 -117 401 -148 580 -68 158 71 196 261 70 347 -43 29 -127 52 -252 68
-200 26 -273 62 -273 133 0 27 7 42 33 64 47 41 110 56 209 51 94 -5 153 -27
212 -78 l37 -33 35 33 c18 19 34 41 34 49 0 9 -15 28 -32 43 -82 70 -210 101
-363 88z"/>
<path d="M12725 839 c-87 -13 -148 -36 -215 -80 -211 -142 -238 -430 -55 -598
94 -86 215 -130 355 -130 198 -1 363 89 442 240 30 60 33 71 33 164 0 88 -3
107 -27 157 -83 178 -306 281 -533 247z m210 -123 c70 -18 110 -41 156 -87
148 -148 86 -381 -123 -460 -83 -32 -226 -34 -305 -4 -72 26 -141 81 -178 139
-27 45 -30 57 -30 130 1 63 6 90 22 121 22 42 78 99 125 128 70 44 234 60 333
33z"/>
<path d="M4258 825 c-126 -32 -231 -111 -289 -217 -33 -61 -34 -67 -34 -173 0
-98 3 -116 27 -167 84 -180 321 -276 547 -223 68 16 170 63 209 95 l23 19 -27
46 c-25 43 -28 45 -48 32 -157 -101 -279 -120 -429 -65 -159 57 -234 224 -168
375 84 192 366 237 573 92 14 -11 30 -19 35 -19 14 1 65 80 60 95 -8 19 -88
64 -166 93 -84 30 -229 39 -313 17z"/>
<path d="M30 435 l0 -395 56 0 56 0 -4 300 c-2 165 0 299 4 298 4 -2 74 -84
155 -183 137 -167 151 -180 184 -183 35 -3 39 1 126 105 50 59 118 143 152
186 35 42 66 77 69 77 4 0 5 -135 3 -300 l-3 -300 56 0 56 0 0 395 0 395 -57
0 -58 0 -164 -205 c-91 -113 -170 -205 -177 -205 -7 0 -27 20 -46 44 -18 24
-91 116 -163 205 l-130 161 -57 0 -58 0 0 -395z"/>
<path d="M1760 821 c0 -4 -83 -177 -185 -385 -102 -207 -185 -381 -185 -387 0
-6 22 -9 57 -7 l57 3 46 90 45 90 239 0 240 0 45 -92 46 -93 57 0 c31 0 59 3
61 8 3 4 -32 81 -77 172 -44 91 -130 265 -189 388 l-108 222 -75 0 c-41 0 -74
-4 -74 -9z m165 -287 c47 -96 85 -180 85 -185 0 -5 -73 -9 -175 -9 -122 0
-175 3 -175 11 0 15 167 359 174 359 3 0 44 -79 91 -176z"/>
<path d="M2730 435 l0 -395 55 0 55 0 0 138 c0 75 4 143 8 150 7 9 42 12 143
10 l134 -3 110 -147 110 -147 68 -1 c37 0 67 4 67 8 0 5 -47 71 -105 147 -58
77 -104 143 -103 146 2 4 26 22 53 41 96 64 137 160 114 268 -9 44 -21 63 -64
106 -33 33 -66 56 -91 63 -23 7 -142 11 -296 11 l-258 0 0 -395z m520 264 c53
-31 70 -58 70 -109 0 -36 -6 -53 -31 -82 -43 -53 -76 -60 -274 -56 l-170 3 -3
110 c-4 171 -24 155 191 155 167 0 185 -2 217 -21z"/>
<path d="M6595 817 c-3 -6 -4 -183 -3 -392 l3 -380 328 -3 327 -2 0 55 0 55
-267 2 -268 3 0 115 0 115 235 5 235 5 3 52 3 53 -238 2 -238 3 0 105 0 105
268 3 267 2 0 55 0 55 -325 0 c-252 0 -327 -3 -330 -13z"/>
<path d="M8950 435 l0 -395 55 0 54 0 3 148 3 147 205 5 c129 4 215 10 233 18
79 34 140 107 157 189 22 103 -31 207 -132 257 -52 26 -52 26 -315 26 l-263 0
0 -395z m503 271 c80 -33 110 -119 65 -186 -44 -63 -71 -70 -275 -70 l-183 0
0 128 c0 71 3 132 7 135 13 14 352 8 386 -7z"/>
<path d="M10150 435 l0 -395 328 2 327 3 0 50 0 50 -267 3 -268 2 0 120 0 120
219 0 c121 0 226 3 235 6 12 4 16 20 16 55 l0 49 -232 2 -233 3 -3 108 -3 107
271 0 271 0 -3 53 -3 52 -327 3 -328 2 0 -395z"/>
<path d="M11775 820 c-4 -6 -6 -122 -5 -258 2 -157 -1 -259 -8 -281 -29 -89
-107 -141 -212 -141 -77 0 -128 26 -189 97 l-40 48 -36 -35 c-19 -19 -35 -40
-35 -47 0 -21 77 -99 123 -126 139 -81 337 -53 438 61 73 83 79 116 79 422 l0
270 -54 0 c-30 0 -58 -5 -61 -10z"/>
</g>
</svg>
